{
  "asset": {
    "generator": "glTF-Transform v4.3.0",
    "version": "2.0"
  },
  "accessors": [
    {
      "type": "VEC3",
      "componentType": 5126,
      "count": 294,
      "max": [
        0.984919548034668,
        0.7708336114883423,
        1.094832420349121
      ],
      "min": [
        -0.9171962738037109,
        -0.2291664481163025,
        -0.9051671028137207
      ],
      "bufferView": 0,
      "byteOffset": 0
    },
    {
      "type": "VEC3",
      "componentType": 5126,
      "count": 294,
      "bufferView": 0,
      "byteOffset": 12
    },
    {
      "type": "VEC2",
      "componentType": 5126,
      "count": 294,
      "bufferView": 0,
      "byteOffset": 24
    },
    {
      "type": "SCALAR",
      "componentType": 5123,
      "count": 720,
      "bufferView": 1,
      "byteOffset": 0
    },
    {
      "type": "SCALAR",
      "componentType": 5123,
      "count": 60,
      "bufferView": 1,
      "byteOffset": 1440
    },
    {
      "type": "SCALAR",
      "componentType": 5123,
      "count": 252,
      "bufferView": 1,
      "byteOffset": 1560
    },
    {
      "type": "SCALAR",
      "componentType": 5123,
      "count": 120,
      "bufferView": 1,
      "byteOffset": 2064
    },
    {
      "type": "SCALAR",
      "componentType": 5123,
      "count": 48,
      "bufferView": 1,
      "byteOffset": 2304
    },
    {
      "type": "SCALAR",
      "componentType": 5123,
      "count": 2412,
      "bufferView": 1,
      "byteOffset": 2400
    },
    {
      "type": "SCALAR",
      "componentType": 5123,
      "count": 510,
      "bufferView": 1,
      "byteOffset": 7224
    },
    {
      "type": "SCALAR",
      "componentType": 5123,
      "count": 12,
      "bufferView": 1,
      "byteOffset": 8244
    },
    {
      "type": "SCALAR",
      "componentType": 5123,
      "count": 987,
      "bufferView": 1,
      "byteOffset": 8268
    },
    {
      "type": "SCALAR",
      "componentType": 5123,
      "count": 24,
      "bufferView": 1,
      "byteOffset": 10244
    },
    {
      "type": "SCALAR",
      "componentType": 5123,
      "count": 720,
      "bufferView": 1,
      "byteOffset": 10292
    },
    {
      "type": "SCALAR",
      "componentType": 5123,
      "count": 11616,
      "bufferView": 1,
      "byteOffset": 11732
    },
    {
      "type": "SCALAR",
      "componentType": 5123,
      "count": 720,
      "bufferView": 1,
      "byteOffset": 34964
    },
    {
      "type": "SCALAR",
      "componentType": 5123,
      "count": 11616,
      "bufferView": 1,
      "byteOffset": 36404
    },
    {
      "type": "SCALAR",
      "componentType": 5123,
      "count": 720,
      "bufferView": 1,
      "byteOffset": 59636
    },
    {
      "type": "SCALAR",
      "componentType": 5123,
      "count": 672,
      "bufferView": 1,
      "byteOffset": 61076
    },
    {
      "type": "SCALAR",
      "componentType": 5123,
      "count": 10944,
      "bufferView": 1,
      "byteOffset": 62420
    },
    {
      "type": "SCALAR",
      "componentType": 5123,
      "count": 720,
      "bufferView": 1,
      "byteOffset": 84308
    },
    {
      "type": "SCALAR",
      "componentType": 5123,
      "count": 36,
      "bufferView": 1,
      "byteOffset": 85748
    },
    {
      "type": "SCALAR",
      "componentType": 5123,
      "count": 1248,
      "bufferView": 1,
      "byteOffset": 85820
    },
    {
      "type": "SCALAR",
      "componentType": 5123,
      "count": 36,
      "bufferView": 1,
      "byteOffset": 88316
    },
    {
      "type": "VEC3",
      "componentType": 5126,
      "count": 34,
      "max": [
        0.9972787499427795,
        0.2370024025440216,
        1.0721670389175415
      ],
      "min": [
        -0.9048370718955994,
        -0.23123106360435486,
        -0.9278327822685242
      ],
      "bufferView": 2,
      "byteOffset": 0
    },
    {
      "type": "VEC3",
      "componentType": 5126,
      "count": 34,
      "bufferView": 2,
      "byteOffset": 12
    },
    {
      "type": "VEC2",
      "componentType": 5126,
      "count": 34,
      "bufferView": 2,
      "byteOffset": 24
    },
    {
      "type": "VEC3",
      "componentType": 5126,
      "count": 168,
      "max": [
        0.47656628489494324,
        0.36150017380714417,
        0.3688763976097107
      ],
      "min": [
        -0.5698394179344177,
        -0.22024905681610107,
        -0.5969127416610718
      ],
      "bufferView": 3,
      "byteOffset": 0
    },
    {
      "type": "VEC3",
      "componentType": 5126,
      "count": 168,
      "bufferView": 3,
      "byteOffset": 12
    },
    {
      "type": "VEC2",
      "componentType": 5126,
      "count": 168,
      "bufferView": 3,
      "byteOffset": 24
    },
    {
      "type": "VEC3",
      "componentType": 5126,
      "count": 120,
      "max": [
        0.9836635589599609,
        0.7708336114883423,
        1.087773323059082
      ],
      "min": [
        -0.9153203964233398,
        -0.21934396028518677,
        -0.8981075286865234
      ],
      "bufferView": 4,
      "byteOffset": 0
    },
    {
      "type": "VEC3",
      "componentType": 5126,
      "count": 120,
      "bufferView": 4,
      "byteOffset": 12
    },
    {
      "type": "VEC2",
      "componentType": 5126,
      "count": 120,
      "bufferView": 4,
      "byteOffset": 24
    },
    {
      "type": "VEC3",
      "componentType": 5126,
      "count": 32,
      "max": [
        0.938927173614502,
        0.1192786693572998,
        0.914637565612793
      ],
      "min": [
        -0.943091869354248,
        -0.06612598896026611,
        -0.967381477355957
      ],
      "bufferView": 5,
      "byteOffset": 0
    },
    {
      "type": "VEC3",
      "componentType": 5126,
      "count": 32,
      "bufferView": 5,
      "byteOffset": 12
    },
    {
      "type": "VEC2",
      "componentType": 5126,
      "count": 32,
      "bufferView": 5,
      "byteOffset": 24
    },
    {
      "type": "VEC3",
      "componentType": 5126,
      "count": 1634,
      "max": [
        0.997917652130127,
        0.7376894354820251,
        1.0999526977539062
      ],
      "min": [
        -1.0020813941955566,
        -0.8429438471794128,
        -1.026371955871582
      ],
      "bufferView": 6,
      "byteOffset": 0
    },
    {
      "type": "VEC3",
      "componentType": 5126,
      "count": 1634,
      "bufferView": 6,
      "byteOffset": 12
    },
    {
      "type": "VEC2",
      "componentType": 5126,
      "count": 1634,
      "bufferView": 6,
      "byteOffset": 24
    },
    {
      "type": "VEC3",
      "componentType": 5126,
      "count": 313,
      "max": [
        6.96223258972168,
        1.0257002115249634,
        6.68308687210083
      ],
      "min": [
        -6.371100425720215,
        -0.24740298092365265,
        -5.6978654861450195
      ],
      "bufferView": 7,
      "byteOffset": 0
    },
    {
      "type": "VEC3",
      "componentType": 5126,
      "count": 313,
      "bufferView": 7,
      "byteOffset": 12
    },
    {
      "type": "VEC2",
      "componentType": 5126,
      "count": 313,
      "bufferView": 7,
      "byteOffset": 24
    },
    {
      "type": "VEC3",
      "componentType": 5126,
      "count": 8,
      "max": [
        0.29556649923324585,
        0.3048921227455139,
        -2.8407225608825684
      ],
      "min": [
        -4.942529201507568,
        0.08429424464702606,
        -5.221674919128418
      ],
      "bufferView": 8,
      "byteOffset": 0
    },
    {
      "type": "VEC3",
      "componentType": 5126,
      "count": 8,
      "bufferView": 8,
      "byteOffset": 12
    },
    {
      "type": "VEC2",
      "componentType": 5126,
      "count": 8,
      "bufferView": 8,
      "byteOffset": 24
    },
    {
      "type": "VEC3",
      "componentType": 5126,
      "count": 270,
      "max": [
        9.552133560180664,
        0,
        10.238980293273926
      ],
      "min": [
        -9.495485305786133,
        0,
        -8.808638572692871
      ],
      "bufferView": 9,
      "byteOffset": 0
    },
    {
      "type": "VEC3",
      "componentType": 5126,
      "count": 270,
      "bufferView": 9,
      "byteOffset": 12
    },
    {
      "type": "VEC2",
      "componentType": 5126,
      "count": 270,
      "bufferView": 9,
      "byteOffset": 24
    },
    {
      "type": "VEC3",
      "componentType": 5126,
      "count": 10,
      "max": [
        0.9741983413696289,
        -0.4024065136909485,
        0.957158088684082
      ],
      "min": [
        -0.9279179573059082,
        -0.4024065136909485,
        -1.042841911315918
      ],
      "bufferView": 10,
      "byteOffset": 0
    },
    {
      "type": "VEC3",
      "componentType": 5126,
      "count": 10,
      "bufferView": 10,
      "byteOffset": 12
    },
    {
      "type": "VEC2",
      "componentType": 5126,
      "count": 10,
      "bufferView": 10,
      "byteOffset": 24
    },
    {
      "type": "VEC3",
      "componentType": 5126,
      "count": 286,
      "max": [
        0.9741964340209961,
        0.6012572050094604,
        0.9571571350097656
      ],
      "min": [
        -0.9279193878173828,
        -0.39874282479286194,
        -1.0428423881530762
      ],
      "bufferView": 11,
      "byteOffset": 0
    },
    {
      "type": "VEC3",
      "componentType": 5126,
      "count": 286,
      "bufferView": 11,
      "byteOffset": 12
    },
    {
      "type": "VEC2",
      "componentType": 5126,
      "count": 286,
      "bufferView": 11,
      "byteOffset": 24
    },
    {
      "type": "VEC3",
      "componentType": 5126,
      "count": 120,
      "max": [
        0.9729404449462891,
        0.6012572050094604,
        0.9500980377197266
      ],
      "min": [
        -0.9260435104370117,
        -0.3889203369617462,
        -1.035782814025879
      ],
      "bufferView": 12,
      "byteOffset": 0
    },
    {
      "type": "VEC3",
      "componentType": 5126,
      "count": 120,
      "bufferView": 12,
      "byteOffset": 12
    },
    {
      "type": "VEC2",
      "componentType": 5126,
      "count": 120,
      "bufferView": 12,
      "byteOffset": 24
    },
    {
      "type": "VEC3",
      "componentType": 5126,
      "count": 7864,
      "max": [
        0.6155147552490234,
        0.3319990634918213,
        0.6192770004272461
      ],
      "min": [
        -0.619053840637207,
        -0.3818126618862152,
        -0.615483283996582
      ],
      "bufferView": 13,
      "byteOffset": 0
    },
    {
      "type": "VEC3",
      "componentType": 5126,
      "count": 7864,
      "bufferView": 13,
      "byteOffset": 12
    },
    {
      "type": "VEC2",
      "componentType": 5126,
      "count": 7864,
      "bufferView": 13,
      "byteOffset": 24
    },
    {
      "type": "VEC3",
      "componentType": 5126,
      "count": 10,
      "max": [
        0.9742097854614258,
        -0.4024065136909485,
        0.9571590423583984
      ],
      "min": [
        -0.9279065132141113,
        -0.4024065136909485,
        -1.0428409576416016
      ],
      "bufferView": 14,
      "byteOffset": 0
    },
    {
      "type": "VEC3",
      "componentType": 5126,
      "count": 10,
      "bufferView": 14,
      "byteOffset": 12
    },
    {
      "type": "VEC2",
      "componentType": 5126,
      "count": 10,
      "bufferView": 14,
      "byteOffset": 24
    },
    {
      "type": "VEC3",
      "componentType": 5126,
      "count": 348,
      "max": [
        0.9742083549499512,
        0.6012572050094604,
        0.957158088684082
      ],
      "min": [
        -0.9279074668884277,
        -0.39874282479286194,
        -1.042841911315918
      ],
      "bufferView": 15,
      "byteOffset": 0
    },
    {
      "type": "VEC3",
      "componentType": 5126,
      "count": 348,
      "bufferView": 15,
      "byteOffset": 12
    },
    {
      "type": "VEC2",
      "componentType": 5126,
      "count": 348,
      "bufferView": 15,
      "byteOffset": 24
    },
    {
      "type": "VEC3",
      "componentType": 5126,
      "count": 120,
      "max": [
        0.9729523658752441,
        0.6012572050094604,
        0.950098991394043
      ],
      "min": [
        -0.9260315895080566,
        -0.3889203369617462,
        -1.0357818603515625
      ],
      "bufferView": 16,
      "byteOffset": 0
    },
    {
      "type": "VEC3",
      "componentType": 5126,
      "count": 120,
      "bufferView": 16,
      "byteOffset": 12
    },
    {
      "type": "VEC2",
      "componentType": 5126,
      "count": 120,
      "bufferView": 16,
      "byteOffset": 24
    },
    {
      "type": "VEC3",
      "componentType": 5126,
      "count": 7866,
      "max": [
        0.6155261993408203,
        0.3319990634918213,
        0.6192779541015625
      ],
      "min": [
        -0.619041919708252,
        -0.3818126618862152,
        -0.6154823303222656
      ],
      "bufferView": 17,
      "byteOffset": 0
    },
    {
      "type": "VEC3",
      "componentType": 5126,
      "count": 7866,
      "bufferView": 17,
      "byteOffset": 12
    },
    {
      "type": "VEC2",
      "componentType": 5126,
      "count": 7866,
      "bufferView": 17,
      "byteOffset": 24
    },
    {
      "type": "VEC3",
      "componentType": 5126,
      "count": 10,
      "max": [
        0.528981626033783,
        -0.4024065136909485,
        0.4890216588973999
      ],
      "min": [
        -0.4826938509941101,
        -0.4024065136909485,
        -0.5747150182723999
      ],
      "bufferView": 18,
      "byteOffset": 0
    },
    {
      "type": "VEC3",
      "componentType": 5126,
      "count": 10,
      "bufferView": 18,
      "byteOffset": 12
    },
    {
      "type": "VEC2",
      "componentType": 5126,
      "count": 10,
      "bufferView": 18,
      "byteOffset": 24
    },
    {
      "type": "VEC3",
      "componentType": 5126,
      "count": 388,
      "max": [
        0.9197902679443359,
        0.6012572050094604,
        0.8099145889282227
      ],
      "min": [
        -0.8312578201293945,
        -0.39874282479286194,
        -0.8956093788146973
      ],
      "bufferView": 19,
      "byteOffset": 0
    },
    {
      "type": "VEC3",
      "componentType": 5126,
      "count": 388,
      "bufferView": 19,
      "byteOffset": 12
    },
    {
      "type": "VEC2",
      "componentType": 5126,
      "count": 388,
      "bufferView": 19,
      "byteOffset": 24
    },
    {
      "type": "VEC3",
      "componentType": 5126,
      "count": 120,
      "max": [
        0.9197902679443359,
        0.6012572050094604,
        0.8099145889282227
      ],
      "min": [
        -0.8312578201293945,
        -0.3889203369617462,
        -0.8956093788146973
      ],
      "bufferView": 20,
      "byteOffset": 0
    },
    {
      "type": "VEC3",
      "componentType": 5126,
      "count": 120,
      "bufferView": 20,
      "byteOffset": 12
    },
    {
      "type": "VEC2",
      "componentType": 5126,
      "count": 120,
      "bufferView": 20,
      "byteOffset": 24
    },
    {
      "type": "VEC3",
      "componentType": 5126,
      "count": 480,
      "max": [
        0.534054696559906,
        0.16204392910003662,
        -0.0014109453186392784
      ],
      "min": [
        -0.538802444934845,
        -0.03340455889701843,
        -0.5370925068855286
      ],
      "bufferView": 21,
      "byteOffset": 0
    },
    {
      "type": "VEC3",
      "componentType": 5126,
      "count": 480,
      "bufferView": 21,
      "byteOffset": 12
    },
    {
      "type": "VEC2",
      "componentType": 5126,
      "count": 480,
      "bufferView": 21,
      "byteOffset": 24
    },
    {
      "type": "VEC3",
      "componentType": 5126,
      "count": 7384,
      "max": [
        0.5366001129150391,
        0.3319990634918213,
        0.5399019122123718
      ],
      "min": [
        -0.5402253270149231,
        -0.3818126618862152,
        -0.5097795128822327
      ],
      "bufferView": 22,
      "byteOffset": 0
    },
    {
      "type": "VEC3",
      "componentType": 5126,
      "count": 7384,
      "bufferView": 22,
      "byteOffset": 12
    },
    {
      "type": "VEC2",
      "componentType": 5126,
      "count": 7384,
      "bufferView": 22,
      "byteOffset": 24
    },
    {
      "type": "VEC3",
      "componentType": 5126,
      "count": 370,
      "max": [
        0.9711790084838867,
        0.6363105773925781,
        1.0240283012390137
      ],
      "min": [
        -0.9309368133544922,
        -0.3636894226074219,
        -0.9759712219238281
      ],
      "bufferView": 23,
      "byteOffset": 0
    },
    {
      "type": "VEC3",
      "componentType": 5126,
      "count": 370,
      "bufferView": 23,
      "byteOffset": 12
    },
    {
      "type": "VEC2",
      "componentType": 5126,
      "count": 370,
      "bufferView": 23,
      "byteOffset": 24
    },
    {
      "type": "VEC3",
      "componentType": 5126,
      "count": 120,
      "max": [
        0.9699230194091797,
        0.6363105773925781,
        1.0169692039489746
      ],
      "min": [
        -0.9290609359741211,
        -0.35386693477630615,
        -0.9689116477966309
      ],
      "bufferView": 24,
      "byteOffset": 0
    },
    {
      "type": "VEC3",
      "componentType": 5126,
      "count": 120,
      "bufferView": 24,
      "byteOffset": 12
    },
    {
      "type": "VEC2",
      "componentType": 5126,
      "count": 120,
      "bufferView": 24,
      "byteOffset": 24
    },
    {
      "type": "VEC3",
      "componentType": 5126,
      "count": 34,
      "max": [
        0.9482612609863281,
        0.10247942060232162,
        1.014190673828125
      ],
      "min": [
        -0.9538545608520508,
        -0.36575403809547424,
        -0.985809326171875
      ],
      "bufferView": 25,
      "byteOffset": 0
    },
    {
      "type": "VEC3",
      "componentType": 5126,
      "count": 34,
      "bufferView": 25,
      "byteOffset": 12
    },
    {
      "type": "VEC2",
      "componentType": 5126,
      "count": 34,
      "bufferView": 25,
      "byteOffset": 24
    },
    {
      "type": "VEC3",
      "componentType": 5126,
      "count": 168,
      "max": [
        0.4275493621826172,
        0.22697719931602478,
        0.3108997344970703
      ],
      "min": [
        -0.6188564300537109,
        -0.35477203130722046,
        -0.6548891067504883
      ],
      "bufferView": 26,
      "byteOffset": 0
    },
    {
      "type": "VEC3",
      "componentType": 5126,
      "count": 168,
      "bufferView": 26,
      "byteOffset": 12
    },
    {
      "type": "VEC2",
      "componentType": 5126,
      "count": 168,
      "bufferView": 26,
      "byteOffset": 24
    },
    {
      "type": "VEC3",
      "componentType": 5126,
      "count": 24,
      "max": [
        0.8610439300537109,
        0.029264919459819794,
        0.35276174545288086
      ],
      "min": [
        -0.8610439300537109,
        -0.029264919459819794,
        -0.35276079177856445
      ],
      "bufferView": 27,
      "byteOffset": 0
    },
    {
      "type": "VEC3",
      "componentType": 5126,
      "count": 24,
      "bufferView": 27,
      "byteOffset": 12
    },
    {
      "type": "VEC2",
      "componentType": 5126,
      "count": 24,
      "bufferView": 27,
      "byteOffset": 24
    },
    {
      "type": "VEC3",
      "componentType": 5126,
      "count": 24,
      "max": [
        0.8610439300537109,
        0.029264919459819794,
        0.35276126861572266
      ],
      "min": [
        -0.8610439300537109,
        -0.029264919459819794,
        -0.35276126861572266
      ],
      "bufferView": 28,
      "byteOffset": 0
    },
    {
      "type": "VEC3",
      "componentType": 5126,
      "count": 24,
      "bufferView": 28,
      "byteOffset": 12
    },
    {
      "type": "VEC2",
      "componentType": 5126,
      "count": 24,
      "bufferView": 28,
      "byteOffset": 24
    },
    {
      "type": "VEC3",
      "componentType": 5126,
      "count": 395,
      "max": [
        10.598291397094727,
        0,
        10.158729553222656
      ],
      "min": [
        -9.401708602905273,
        0,
        -9.841270446777344
      ],
      "bufferView": 29,
      "byteOffset": 0
    },
    {
      "type": "VEC3",
      "componentType": 5126,
      "count": 395,
      "bufferView": 29,
      "byteOffset": 12
    },
    {
      "type": "VEC2",
      "componentType": 5126,
      "count": 395,
      "bufferView": 29,
      "byteOffset": 24
    },
    {
      "type": "VEC3",
      "componentType": 5126,
      "count": 24,
      "max": [
        0.8610439300537109,
        0.029264919459819794,
        0.35276126861572266
      ],
      "min": [
        -0.8610439300537109,
        -0.029264919459819794,
        -0.35276126861572266
      ],
      "bufferView": 30,
      "byteOffset": 0
    },
    {
      "type": "VEC3",
      "componentType": 5126,
      "count": 24,
      "bufferView": 30,
      "byteOffset": 12
    },
    {
      "type": "VEC2",
      "componentType": 5126,
      "count": 24,
      "bufferView": 30,
      "byteOffset": 24
    },
    {
      "type": "VEC3",
      "componentType": 5126,
      "count": 24,
      "max": [
        0.35276126861572266,
        0.029264919459819794,
        0.8610439300537109
      ],
      "min": [
        -0.35276126861572266,
        -0.029264919459819794,
        -0.8610439300537109
      ],
      "bufferView": 31,
      "byteOffset": 0
    },
    {
      "type": "VEC3",
      "componentType": 5126,
      "count": 24,
      "bufferView": 31,
      "byteOffset": 12
    },
    {
      "type": "VEC2",
      "componentType": 5126,
      "count": 24,
      "bufferView": 31,
      "byteOffset": 24
    },
    {
      "type": "VEC3",
      "componentType": 5126,
      "count": 24,
      "max": [
        0.8610439300537109,
        0.029264919459819794,
        0.35276126861572266
      ],
      "min": [
        -0.8610439300537109,
        -0.029264919459819794,
        -0.35276222229003906
      ],
      "bufferView": 32,
      "byteOffset": 0
    },
    {
      "type": "VEC3",
      "componentType": 5126,
      "count": 24,
      "bufferView": 32,
      "byteOffset": 12
    },
    {
      "type": "VEC2",
      "componentType": 5126,
      "count": 24,
      "bufferView": 32,
      "byteOffset": 24
    },
    {
      "type": "VEC3",
      "componentType": 5126,
      "count": 24,
      "max": [
        0.35276126861572266,
        0.029264919459819794,
        0.8610429763793945
      ],
      "min": [
        -0.35276126861572266,
        -0.029264919459819794,
        -0.8610448837280273
      ],
      "bufferView": 33,
      "byteOffset": 0
    },
    {
      "type": "VEC3",
      "componentType": 5126,
      "count": 24,
      "bufferView": 33,
      "byteOffset": 12
    },
    {
      "type": "VEC2",
      "componentType": 5126,
      "count": 24,
      "bufferView": 33,
      "byteOffset": 24
    },
    {
      "type": "VEC3",
      "componentType": 5126,
      "count": 24,
      "max": [
        2.4408681392669678,
        0.08295953273773193,
        1
      ],
      "min": [
        -2.4408681392669678,
        -0.08295953273773193,
        -1
      ],
      "bufferView": 34,
      "byteOffset": 0
    },
    {
      "type": "VEC3",
      "componentType": 5126,
      "count": 24,
      "bufferView": 34,
      "byteOffset": 12
    },
    {
      "type": "VEC2",
      "componentType": 5126,
      "count": 24,
      "bufferView": 34,
      "byteOffset": 24
    },
    {
      "type": "VEC3",
      "componentType": 5126,
      "count": 24,
      "max": [
        0.3527613878250122,
        0.029264919459819794,
        0.8610440492630005
      ],
      "min": [
        -0.3527613878250122,
        -0.029264919459819794,
        -0.8610440492630005
      ],
      "bufferView": 35,
      "byteOffset": 0
    },
    {
      "type": "VEC3",
      "componentType": 5126,
      "count": 24,
      "bufferView": 35,
      "byteOffset": 12
    },
    {
      "type": "VEC2",
      "componentType": 5126,
      "count": 24,
      "bufferView": 35,
      "byteOffset": 24
    },
    {
      "type": "VEC3",
      "componentType": 5126,
      "count": 24,
      "max": [
        0.35276198387145996,
        0.029264919459819794,
        0.8610444068908691
      ],
      "min": [
        -0.35276174545288086,
        -0.029264919459819794,
        -0.86104416847229
      ],
      "bufferView": 36,
      "byteOffset": 0
    },
    {
      "type": "VEC3",
      "componentType": 5126,
      "count": 24,
      "bufferView": 36,
      "byteOffset": 12
    },
    {
      "type": "VEC2",
      "componentType": 5126,
      "count": 24,
      "bufferView": 36,
      "byteOffset": 24
    },
    {
      "type": "VEC3",
      "componentType": 5126,
      "count": 24,
      "max": [
        0.8610439300537109,
        0.029264919459819794,
        0.35276150703430176
      ],
      "min": [
        -0.86104416847229,
        -0.029264919459819794,
        -0.35276150703430176
      ],
      "bufferView": 37,
      "byteOffset": 0
    },
    {
      "type": "VEC3",
      "componentType": 5126,
      "count": 24,
      "bufferView": 37,
      "byteOffset": 12
    },
    {
      "type": "VEC2",
      "componentType": 5126,
      "count": 24,
      "bufferView": 37,
      "byteOffset": 24
    },
    {
      "type": "VEC3",
      "componentType": 5126,
      "count": 24,
      "max": [
        0.2528824806213379,
        0.029264919459819794,
        0.35276079177856445
      ],
      "min": [
        -0.2528824806213379,
        -0.029264919459819794,
        -0.35276174545288086
      ],
      "bufferView": 38,
      "byteOffset": 0
    },
    {
      "type": "VEC3",
      "componentType": 5126,
      "count": 24,
      "bufferView": 38,
      "byteOffset": 12
    },
    {
      "type": "VEC2",
      "componentType": 5126,
      "count": 24,
      "bufferView": 38,
      "byteOffset": 24
    },
    {
      "type": "VEC3",
      "componentType": 5126,
      "count": 24,
      "max": [
        2.4408681392669678,
        0.08295953273773193,
        1
      ],
      "min": [
        -2.4408681392669678,
        -0.08295953273773193,
        -1
      ],
      "bufferView": 39,
      "byteOffset": 0
    },
    {
      "type": "VEC3",
      "componentType": 5126,
      "count": 24,
      "bufferView": 39,
      "byteOffset": 12
    },
    {
      "type": "VEC2",
      "componentType": 5126,
      "count": 24,
      "bufferView": 39,
      "byteOffset": 24
    },
    {
      "type": "VEC3",
      "componentType": 5126,
      "count": 24,
      "max": [
        2.4408681392669678,
        0.08295953273773193,
        1
      ],
      "min": [
        -2.4408681392669678,
        -0.08295953273773193,
        -1
      ],
      "bufferView": 40,
      "byteOffset": 0
    },
    {
      "type": "VEC3",
      "componentType": 5126,
      "count": 24,
      "bufferView": 40,
      "byteOffset": 12
    },
    {
      "type": "VEC2",
      "componentType": 5126,
      "count": 24,
      "bufferView": 40,
      "byteOffset": 24
    },
    {
      "type": "VEC3",
      "componentType": 5126,
      "count": 24,
      "max": [
        2.4408681392669678,
        0.08295953273773193,
        1
      ],
      "min": [
        -2.4408681392669678,
        -0.08295953273773193,
        -1
      ],
      "bufferView": 41,
      "byteOffset": 0
    },
    {
      "type": "VEC3",
      "componentType": 5126,
      "count": 24,
      "bufferView": 41,
      "byteOffset": 12
    },
    {
      "type": "VEC2",
      "componentType": 5126,
      "count": 24,
      "bufferView": 41,
      "byteOffset": 24
    }
  ],
  "bufferViews": [
    {
      "buffer": 0,
      "byteOffset": 0,
      "byteLength": 9408,
      "byteStride": 32,
      "target": 34962
    },
    {
      "buffer": 0,
      "byteOffset": 9408,
      "byteLength": 88388,
      "target": 34963
    },
    {
      "buffer": 0,
      "byteOffset": 97796,
      "byteLength": 1088,
      "byteStride": 32,
      "target": 34962
    },
    {
      "buffer": 0,
      "byteOffset": 98884,
      "byteLength": 5376,
      "byteStride": 32,
      "target": 34962
    },
    {
      "buffer": 0,
      "byteOffset": 104260,
      "byteLength": 3840,
      "byteStride": 32,
      "target": 34962
    },
    {
      "buffer": 0,
      "byteOffset": 108100,
      "byteLength": 1024,
      "byteStride": 32,
      "target": 34962
    },
    {
      "buffer": 0,
      "byteOffset": 109124,
      "byteLength": 52288,
      "byteStride": 32,
      "target": 34962
    },
    {
      "buffer": 0,
      "byteOffset": 161412,
      "byteLength": 10016,
      "byteStride": 32,
      "target": 34962
    },
    {
      "buffer": 0,
      "byteOffset": 171428,
      "byteLength": 256,
      "byteStride": 32,
      "target": 34962
    },
    {
      "buffer": 0,
      "byteOffset": 171684,
      "byteLength": 8640,
      "byteStride": 32,
      "target": 34962
    },
    {
      "buffer": 0,
      "byteOffset": 180324,
      "byteLength": 320,
      "byteStride": 32,
      "target": 34962
    },
    {
      "buffer": 0,
      "byteOffset": 180644,
      "byteLength": 9152,
      "byteStride": 32,
      "target": 34962
    },
    {
      "buffer": 0,
      "byteOffset": 189796,
      "byteLength": 3840,
      "byteStride": 32,
      "target": 34962
    },
    {
      "buffer": 0,
      "byteOffset": 193636,
      "byteLength": 251648,
      "byteStride": 32,
      "target": 34962
    },
    {
      "buffer": 0,
      "byteOffset": 445284,
      "byteLength": 320,
      "byteStride": 32,
      "target": 34962
    },
    {
      "buffer": 0,
      "byteOffset": 445604,
      "byteLength": 11136,
      "byteStride": 32,
      "target": 34962
    },
    {
      "buffer": 0,
      "byteOffset": 456740,
      "byteLength": 3840,
      "byteStride": 32,
      "target": 34962
    },
    {
      "buffer": 0,
      "byteOffset": 460580,
      "byteLength": 251712,
      "byteStride": 32,
      "target": 34962
    },
    {
      "buffer": 0,
      "byteOffset": 712292,
      "byteLength": 320,
      "byteStride": 32,
      "target": 34962
    },
    {
      "buffer": 0,
      "byteOffset": 712612,
      "byteLength": 12416,
      "byteStride": 32,
      "target": 34962
    },
    {
      "buffer": 0,
      "byteOffset": 725028,
      "byteLength": 3840,
      "byteStride": 32,
      "target": 34962
    },
    {
      "buffer": 0,
      "byteOffset": 728868,
      "byteLength": 15360,
      "byteStride": 32,
      "target": 34962
    },
    {
      "buffer": 0,
      "byteOffset": 744228,
      "byteLength": 236288,
      "byteStride": 32,
      "target": 34962
    },
    {
      "buffer": 0,
      "byteOffset": 980516,
      "byteLength": 11840,
      "byteStride": 32,
      "target": 34962
    },
    {
      "buffer": 0,
      "byteOffset": 992356,
      "byteLength": 3840,
      "byteStride": 32,
      "target": 34962
    },
    {
      "buffer": 0,
      "byteOffset": 996196,
      "byteLength": 1088,
      "byteStride": 32,
      "target": 34962
    },
    {
      "buffer": 0,
      "byteOffset": 997284,
      "byteLength": 5376,
      "byteStride": 32,
      "target": 34962
    },
    {
      "buffer": 0,
      "byteOffset": 1002660,
      "byteLength": 768,
      "byteStride": 32,
      "target": 34962
    },
    {
      "buffer": 0,
      "byteOffset": 1003428,
      "byteLength": 768,
      "byteStride": 32,
      "target": 34962
    },
    {
      "buffer": 0,
      "byteOffset": 1004196,
      "byteLength": 12640,
      "byteStride": 32,
      "target": 34962
    },
    {
      "buffer": 0,
      "byteOffset": 1016836,
      "byteLength": 768,
      "byteStride": 32,
      "target": 34962
    },
    {
      "buffer": 0,
      "byteOffset": 1017604,
      "byteLength": 768,
      "byteStride": 32,
      "target": 34962
    },
    {
      "buffer": 0,
      "byteOffset": 1018372,
      "byteLength": 768,
      "byteStride": 32,
      "target": 34962
    },
    {
      "buffer": 0,
      "byteOffset": 1019140,
      "byteLength": 768,
      "byteStride": 32,
      "target": 34962
    },
    {
      "buffer": 0,
      "byteOffset": 1019908,
      "byteLength": 768,
      "byteStride": 32,
      "target": 34962
    },
    {
      "buffer": 0,
      "byteOffset": 1020676,
      "byteLength": 768,
      "byteStride": 32,
      "target": 34962
    },
    {
      "buffer": 0,
      "byteOffset": 1021444,
      "byteLength": 768,
      "byteStride": 32,
      "target": 34962
    },
    {
      "buffer": 0,
      "byteOffset": 1022212,
      "byteLength": 768,
      "byteStride": 32,
      "target": 34962
    },
    {
      "buffer": 0,
      "byteOffset": 1022980,
      "byteLength": 768,
      "byteStride": 32,
      "target": 34962
    },
    {
      "buffer": 0,
      "byteOffset": 1023748,
      "byteLength": 768,
      "byteStride": 32,
      "target": 34962
    },
    {
      "buffer": 0,
      "byteOffset": 1024516,
      "byteLength": 768,
      "byteStride": 32,
      "target": 34962
    },
    {
      "buffer": 0,
      "byteOffset": 1025284,
      "byteLength": 768,
      "byteStride": 32,
      "target": 34962
    }
  ],
  "buffers": [
    {
      "uri": "ShinyPath_04.bin",
      "byteLength": 1026052
    }
  ],
  "materials": [
    {
      "name": "NASAWhite",
      "doubleSided": true,
      "pbrMetallicRoughness": {
        "baseColorFactor": [
          0.8000156879425049,
          0.7265746593475342,
          0.07786845415830612,
          1
        ],
        "roughnessFactor": 0.5,
        "metallicFactor": 0
      },
      "emissiveFactor": [
        0.3999999761581421,
        0.3614372753240289,
        0.0011543196869301942
      ]
    },
    {
      "name": "LitFloor",
      "doubleSided": true,
      "pbrMetallicRoughness": {
        "baseColorFactor": [
          0.45705968141555786,
          0.14883247017860413,
          0.02305145002901554,
          1
        ],
        "roughnessFactor": 0.5,
        "metallicFactor": 0
      },
      "emissiveFactor": [
        0.29999998211860657,
        0.06157412758027725,
        0.012004040211198275
      ]
    },
    {
      "name": "BrightWindow",
      "doubleSided": true,
      "pbrMetallicRoughness": {
        "baseColorFactor": [
          0.0690123438835144,
          0.8000229597091675,
          0.18027551472187042,
          1
        ],
        "roughnessFactor": 0.5,
        "metallicFactor": 0
      },
      "emissiveFactor": [
        0.7999999523162842,
        0.47905089384013877,
        0.11110613875948516
      ]
    },
    {
      "name": "TransPlastic",
      "alphaMode": "BLEND",
      "doubleSided": true,
      "pbrMetallicRoughness": {
        "baseColorFactor": [
          0.16332316398620605,
          0.3117408752441406,
          0.4896452724933624,
          0.21383649110794067
        ],
        "roughnessFactor": 0.5,
        "metallicFactor": 0
      }
    },
    {
      "name": "NASAHouse",
      "doubleSided": true,
      "pbrMetallicRoughness": {
        "baseColorFactor": [
          0.11199027299880981,
          0.24176755547523499,
          0.48288625478744507,
          1
        ],
        "roughnessFactor": 0.5,
        "metallicFactor": 0
      }
    },
    {
      "name": "RimWall",
      "doubleSided": true,
      "pbrMetallicRoughness": {
        "baseColorFactor": [
          0.1303926706314087,
          0.17171062529087067,
          0.20780453085899353,
          1
        ],
        "roughnessFactor": 0.5,
        "metallicFactor": 0
      }
    },
    {
      "name": "ShinyRoad",
      "doubleSided": true,
      "pbrMetallicRoughness": {
        "baseColorFactor": [
          0.06264972686767578,
          0.17914839088916779,
          0.4828868508338928,
          1
        ],
        "roughnessFactor": 0.7900629043579102,
        "metallicFactor": 0.16314467787742615
      }
    },
    {
      "name": "LavaTube",
      "doubleSided": true,
      "pbrMetallicRoughness": {
        "baseColorFactor": [
          0.032821204513311386,
          0.032821204513311386,
          0.032821204513311386,
          1
        ],
        "roughnessFactor": 0.5,
        "metallicFactor": 0
      }
    },
    {
      "name": "PlantGreen",
      "doubleSided": true,
      "pbrMetallicRoughness": {
        "baseColorFactor": [
          0.004305163398385048,
          0.39995622634887695,
          0.004782459698617458,
          1
        ],
        "roughnessFactor": 0.5,
        "metallicFactor": 0
      },
      "emissiveFactor": [
        0.005795278359428835,
        0.6000003814697266,
        0.011051848106760076
      ]
    },
    {
      "name": "NukemRed",
      "doubleSided": true,
      "pbrMetallicRoughness": {
        "baseColorFactor": [
          0.8000156879425049,
          0.05600711703300476,
          0.05767983943223953,
          1
        ],
        "roughnessFactor": 0.5,
        "metallicFactor": 0
      },
      "emissiveFactor": [
        0.39999961853027344,
        0.019437363088243842,
        0.02152048532199302
      ]
    },
    {
      "name": "ChargeRed",
      "extras": {
        "displayName": "ChargePad1"
      },
      "doubleSided": true,
      "pbrMetallicRoughness": {
        "baseColorFactor": [
          0.7037741541862488,
          0.14696213603019714,
          0.12339602410793304,
          1
        ],
        "roughnessFactor": 0.8207547068595886,
        "metallicFactor": 0
      }
    },
    {
      "name": "Regolith",
      "doubleSided": true,
      "pbrMetallicRoughness": {
        "baseColorFactor": [
          0.3480072617530823,
          0.42492902278900146,
          0.496459037065506,
          1
        ],
        "roughnessFactor": 0.5,
        "metallicFactor": 0
      }
    }
  ],
  "meshes": [
    {
      "name": "Plane.006",
      "primitives": [
        {
          "attributes": {
            "POSITION": 0,
            "NORMAL": 1,
            "TEXCOORD_0": 2
          },
          "mode": 4,
          "material": 0,
          "indices": 3
        },
        {
          "attributes": {
            "POSITION": 24,
            "NORMAL": 25,
            "TEXCOORD_0": 26
          },
          "mode": 4,
          "material": 1,
          "indices": 4
        },
        {
          "attributes": {
            "POSITION": 27,
            "NORMAL": 28,
            "TEXCOORD_0": 29
          },
          "mode": 4,
          "material": 2,
          "indices": 5
        },
        {
          "attributes": {
            "POSITION": 30,
            "NORMAL": 31,
            "TEXCOORD_0": 32
          },
          "mode": 4,
          "material": 3,
          "indices": 6
        }
      ]
    },
    {
      "name": "Plane.008",
      "primitives": [
        {
          "attributes": {
            "POSITION": 33,
            "NORMAL": 34,
            "TEXCOORD_0": 35
          },
          "mode": 4,
          "material": 2,
          "indices": 7
        },
        {
          "attributes": {
            "POSITION": 36,
            "NORMAL": 37,
            "TEXCOORD_0": 38
          },
          "mode": 4,
          "material": 4,
          "indices": 8
        }
      ]
    },
    {
      "name": "Plane.009",
      "primitives": [
        {
          "attributes": {
            "POSITION": 39,
            "NORMAL": 40,
            "TEXCOORD_0": 41
          },
          "mode": 4,
          "material": 5,
          "indices": 9
        },
        {
          "attributes": {
            "POSITION": 42,
            "NORMAL": 43,
            "TEXCOORD_0": 44
          },
          "mode": 4,
          "material": 0,
          "indices": 10
        }
      ]
    },
    {
      "name": "Plane.012",
      "primitives": [
        {
          "attributes": {
            "POSITION": 45,
            "NORMAL": 46,
            "TEXCOORD_0": 47
          },
          "mode": 4,
          "material": 6,
          "indices": 11
        }
      ]
    },
    {
      "name": "Plane.015",
      "primitives": [
        {
          "attributes": {
            "POSITION": 48,
            "NORMAL": 49,
            "TEXCOORD_0": 50
          },
          "mode": 4,
          "material": 7,
          "indices": 12
        },
        {
          "attributes": {
            "POSITION": 51,
            "NORMAL": 52,
            "TEXCOORD_0": 53
          },
          "mode": 4,
          "material": 0,
          "indices": 13
        },
        {
          "attributes": {
            "POSITION": 54,
            "NORMAL": 55,
            "TEXCOORD_0": 56
          },
          "mode": 4,
          "material": 3,
          "indices": 6
        },
        {
          "attributes": {
            "POSITION": 57,
            "NORMAL": 58,
            "TEXCOORD_0": 59
          },
          "mode": 4,
          "material": 8,
          "indices": 14
        }
      ]
    },
    {
      "name": "Plane.018",
      "primitives": [
        {
          "attributes": {
            "POSITION": 60,
            "NORMAL": 61,
            "TEXCOORD_0": 62
          },
          "mode": 4,
          "material": 7,
          "indices": 12
        },
        {
          "attributes": {
            "POSITION": 63,
            "NORMAL": 64,
            "TEXCOORD_0": 65
          },
          "mode": 4,
          "material": 0,
          "indices": 15
        },
        {
          "attributes": {
            "POSITION": 66,
            "NORMAL": 67,
            "TEXCOORD_0": 68
          },
          "mode": 4,
          "material": 3,
          "indices": 6
        },
        {
          "attributes": {
            "POSITION": 69,
            "NORMAL": 70,
            "TEXCOORD_0": 71
          },
          "mode": 4,
          "material": 8,
          "indices": 16
        }
      ]
    },
    {
      "name": "Plane.013",
      "primitives": [
        {
          "attributes": {
            "POSITION": 72,
            "NORMAL": 73,
            "TEXCOORD_0": 74
          },
          "mode": 4,
          "material": 7,
          "indices": 12
        },
        {
          "attributes": {
            "POSITION": 75,
            "NORMAL": 76,
            "TEXCOORD_0": 77
          },
          "mode": 4,
          "material": 0,
          "indices": 17
        },
        {
          "attributes": {
            "POSITION": 78,
            "NORMAL": 79,
            "TEXCOORD_0": 80
          },
          "mode": 4,
          "material": 3,
          "indices": 6
        },
        {
          "attributes": {
            "POSITION": 81,
            "NORMAL": 82,
            "TEXCOORD_0": 83
          },
          "mode": 4,
          "material": 8,
          "indices": 18
        },
        {
          "attributes": {
            "POSITION": 84,
            "NORMAL": 85,
            "TEXCOORD_0": 86
          },
          "mode": 4,
          "material": 9,
          "indices": 19
        }
      ]
    },
    {
      "name": "Plane.016",
      "primitives": [
        {
          "attributes": {
            "POSITION": 87,
            "NORMAL": 88,
            "TEXCOORD_0": 89
          },
          "mode": 4,
          "material": 0,
          "indices": 20
        },
        {
          "attributes": {
            "POSITION": 90,
            "NORMAL": 91,
            "TEXCOORD_0": 92
          },
          "mode": 4,
          "material": 3,
          "indices": 6
        },
        {
          "attributes": {
            "POSITION": 93,
            "NORMAL": 94,
            "TEXCOORD_0": 95
          },
          "mode": 4,
          "material": 1,
          "indices": 4
        },
        {
          "attributes": {
            "POSITION": 96,
            "NORMAL": 97,
            "TEXCOORD_0": 98
          },
          "mode": 4,
          "material": 2,
          "indices": 5
        }
      ]
    },
    {
      "name": "Cube",
      "primitives": [
        {
          "attributes": {
            "POSITION": 99,
            "NORMAL": 100,
            "TEXCOORD_0": 101
          },
          "mode": 4,
          "material": 10,
          "indices": 21
        }
      ]
    },
    {
      "name": "Cube.001",
      "primitives": [
        {
          "attributes": {
            "POSITION": 102,
            "NORMAL": 103,
            "TEXCOORD_0": 104
          },
          "mode": 4,
          "material": 10,
          "indices": 21
        }
      ]
    },
    {
      "name": "Plane.020",
      "primitives": [
        {
          "attributes": {
            "POSITION": 105,
            "NORMAL": 106,
            "TEXCOORD_0": 107
          },
          "mode": 4,
          "material": 11,
          "indices": 22
        }
      ]
    },
    {
      "name": "Cube.003",
      "primitives": [
        {
          "attributes": {
            "POSITION": 108,
            "NORMAL": 109,
            "TEXCOORD_0": 110
          },
          "mode": 4,
          "material": 10,
          "indices": 21
        }
      ]
    },
    {
      "name": "Cube.004",
      "primitives": [
        {
          "attributes": {
            "POSITION": 111,
            "NORMAL": 112,
            "TEXCOORD_0": 113
          },
          "mode": 4,
          "material": 10,
          "indices": 23
        }
      ]
    },
    {
      "name": "Cube.005",
      "primitives": [
        {
          "attributes": {
            "POSITION": 114,
            "NORMAL": 115,
            "TEXCOORD_0": 116
          },
          "mode": 4,
          "material": 10,
          "indices": 21
        }
      ]
    },
    {
      "name": "Cube.006",
      "primitives": [
        {
          "attributes": {
            "POSITION": 117,
            "NORMAL": 118,
            "TEXCOORD_0": 119
          },
          "mode": 4,
          "material": 10,
          "indices": 23
        }
      ]
    },
    {
      "name": "Cube.007",
      "primitives": [
        {
          "attributes": {
            "POSITION": 120,
            "NORMAL": 121,
            "TEXCOORD_0": 122
          },
          "mode": 4,
          "material": 10,
          "indices": 21
        }
      ]
    },
    {
      "name": "Cube.008",
      "primitives": [
        {
          "attributes": {
            "POSITION": 123,
            "NORMAL": 124,
            "TEXCOORD_0": 125
          },
          "mode": 4,
          "material": 10,
          "indices": 23
        }
      ]
    },
    {
      "name": "Cube.009",
      "primitives": [
        {
          "attributes": {
            "POSITION": 126,
            "NORMAL": 127,
            "TEXCOORD_0": 128
          },
          "mode": 4,
          "material": 10,
          "indices": 23
        }
      ]
    },
    {
      "name": "Cube.010",
      "primitives": [
        {
          "attributes": {
            "POSITION": 129,
            "NORMAL": 130,
            "TEXCOORD_0": 131
          },
          "mode": 4,
          "material": 10,
          "indices": 21
        }
      ]
    },
    {
      "name": "Cube.012",
      "primitives": [
        {
          "attributes": {
            "POSITION": 132,
            "NORMAL": 133,
            "TEXCOORD_0": 134
          },
          "mode": 4,
          "material": 10,
          "indices": 21
        }
      ]
    },
    {
      "name": "Cube.013",
      "primitives": [
        {
          "attributes": {
            "POSITION": 135,
            "NORMAL": 136,
            "TEXCOORD_0": 137
          },
          "mode": 4,
          "material": 10,
          "indices": 21
        }
      ]
    },
    {
      "name": "Cube.014",
      "primitives": [
        {
          "attributes": {
            "POSITION": 138,
            "NORMAL": 139,
            "TEXCOORD_0": 140
          },
          "mode": 4,
          "material": 10,
          "indices": 21
        }
      ]
    },
    {
      "name": "Cube.015",
      "primitives": [
        {
          "attributes": {
            "POSITION": 141,
            "NORMAL": 142,
            "TEXCOORD_0": 143
          },
          "mode": 4,
          "material": 10,
          "indices": 21
        }
      ]
    }
  ],
  "nodes": [
    {
      "name": "IceMine1",
      "extras": {
        "booleans": {}
      },
      "translation": [
        -0.5009227395057678,
        0.25113001465797424,
        -0.49903014302253723
      ],
      "mesh": 0
    },
    {
      "name": "VehicleBay",
      "extras": {
        "booleans": {},
        "displayName": "VehicleBay"
      },
      "translation": [
        -6.02091121673584,
        0.8407719731330872,
        8.901583671569824
      ],
      "rotation": [
        0,
        0.7071068286895752,
        0,
        0.7071068286895752
      ],
      "mesh": 1
    },
    {
      "name": "RingWall",
      "extras": {
        "booleans": {},
        "displayName": "RimWall"
      },
      "translation": [
        0.18062400817871094,
        0.24740298092365265,
        -0.49261051416397095
      ],
      "mesh": 2
    },
    {
      "name": "ShinyBlue",
      "extras": {
        "booleans": {},
        "displayName": "ShinyBlue"
      },
      "translation": [
        0.44786667823791504,
        0,
        -0.2389800250530243
      ],
      "mesh": 3
    },
    {
      "name": "GreenPlants1",
      "extras": {
        "booleans": {},
        "displayName": "GreenHouse1"
      },
      "translation": [
        8.931079864501953,
        0.4207063913345337,
        8.968841552734375
      ],
      "mesh": 4
    },
    {
      "name": "GreenPlant2",
      "extras": {
        "booleans": {},
        "displayName": "GreenHouse2"
      },
      "translation": [
        -8.08647632598877,
        0.4207063913345337,
        -7.973243713378906
      ],
      "mesh": 5
    },
    {
      "name": "ChargingStation",
      "extras": {
        "booleans": {},
        "displayName": "ChargingStation"
      },
      "translation": [
        9.068194389343262,
        0.4207063913345337,
        -5.09359884262085
      ],
      "mesh": 6
    },
    {
      "name": "IceMine2",
      "extras": {
        "booleans": {},
        "displayName": "IceDrill1"
      },
      "translation": [
        3.306049346923828,
        0.38565298914909363,
        -2.3392953872680664
      ],
      "mesh": 7
    },
    {
      "name": "Cube",
      "extras": {
        "displayName": "ChargingStationPad1",
        "booleans": {}
      },
      "translation": [
        9.055971145629883,
        0.04210782051086426,
        -6.632303237915039
      ],
      "mesh": 8
    },
    {
      "name": "Cube.001",
      "extras": {
        "displayName": "ChargingStationPad2",
        "booleans": {}
      },
      "translation": [
        9.055971145629883,
        0.04210782051086426,
        -3.744710922241211
      ],
      "mesh": 9
    },
    {
      "name": "ShinyBlue.002",
      "extras": {
        "booleans": {},
        "displayName": "Regolith"
      },
      "translation": [
        -0.5982913970947266,
        0,
        -0.15873000025749207
      ],
      "mesh": 10
    },
    {
      "name": "Cube.002",
      "extras": {
        "displayName": "GreenHouse1Pad1",
        "booleans": {}
      },
      "translation": [
        8.955361366271973,
        0.04210782051086426,
        7.272091865539551
      ],
      "mesh": 11
    },
    {
      "name": "Cube.003",
      "extras": {
        "displayName": "GreenHouse1Pad2",
        "booleans": {}
      },
      "translation": [
        7.295295238494873,
        0.04210782051086426,
        8.932158470153809
      ],
      "mesh": 12
    },
    {
      "name": "Cube.004",
      "extras": {
        "displayName": "GreenHouse2Pad2",
        "booleans": {}
      },
      "translation": [
        -8.072892189025879,
        0.04210782051086426,
        -6.436029434204102
      ],
      "mesh": 13
    },
    {
      "name": "Cube.005",
      "extras": {
        "displayName": "GreenHouse2Pad1",
        "booleans": {}
      },
      "translation": [
        -6.412825584411621,
        0.04210782051086426,
        -8.096095085144043
      ],
      "mesh": 14
    },
    {
      "name": "Cube.006",
      "extras": {
        "displayName": "IceMine1Pad2",
        "booleans": {}
      },
      "translation": [
        -0.49175646901130676,
        0.04210782051086426,
        0.9855031967163086
      ],
      "rotation": [
        0,
        1,
        0,
        2.821299744937278e-7
      ],
      "scale": [
        0.3527613878250122,
        0.3527613878250122,
        0.3527613878250122
      ],
      "mesh": 15
    },
    {
      "name": "Cube.007",
      "extras": {
        "displayName": "IceMine1Pad1",
        "booleans": {}
      },
      "translation": [
        0.9488562345504761,
        0.04210782051086426,
        -0.2755557596683502
      ],
      "mesh": 16
    },
    {
      "name": "Cube.008",
      "extras": {
        "displayName": "IceMine1Pad2",
        "booleans": {}
      },
      "translation": [
        1.8923118114471436,
        0.04210782051086426,
        -3.3379361629486084
      ],
      "mesh": 17
    },
    {
      "name": "Cube.009",
      "extras": {
        "displayName": "IceMine1Pad1",
        "booleans": {}
      },
      "translation": [
        4.230690002441406,
        0.04210782051086426,
        -0.9596564769744873
      ],
      "mesh": 18
    },
    {
      "name": "Cube.011",
      "extras": {
        "displayName": "VehicleBayPad1",
        "booleans": {}
      },
      "translation": [
        -6.606222152709961,
        0.04210782051086426,
        7.421331405639648
      ],
      "mesh": 19
    },
    {
      "name": "Cube.012",
      "extras": {
        "displayName": "VehicleBayPad2",
        "booleans": {}
      },
      "translation": [
        -5.540733337402344,
        0.04210782051086426,
        7.42133092880249
      ],
      "rotation": [
        0,
        1,
        0,
        2.821299744937278e-7
      ],
      "scale": [
        0.1036035344004631,
        0.3527613878250122,
        0.3527613878250122
      ],
      "mesh": 20
    },
    {
      "name": "Cube.010",
      "extras": {
        "displayName": "VehicleBayPad3",
        "booleans": {}
      },
      "translation": [
        -4.55384635925293,
        0.04210782051086426,
        8.303415298461914
      ],
      "rotation": [
        0,
        0.7071064710617065,
        0,
        0.7071071863174438
      ],
      "scale": [
        0.1036035344004631,
        0.3527613878250122,
        0.3527613878250122
      ],
      "mesh": 21
    },
    {
      "name": "Cube.013",
      "extras": {
        "displayName": "VehicleBayPad4",
        "booleans": {}
      },
      "translation": [
        -4.55384635925293,
        0.04210782051086426,
        9.368904113769531
      ],
      "rotation": [
        0,
        0.7071064710617065,
        0,
        0.7071071863174438
      ],
      "scale": [
        0.1036035344004631,
        0.3527613878250122,
        0.3527613878250122
      ],
      "mesh": 22
    }
  ],
  "scenes": [
    {
      "name": "Scene",
      "nodes": [
        0,
        1,
        2,
        3,
        4,
        5,
        6,
        7,
        8,
        9,
        10,
        11,
        12,
        13,
        14,
        15,
        16,
        17,
        18,
        19,
        20,
        21,
        22
      ]
    }
  ],
  "scene": 0
}