{
	"asset":{
		"generator":"Khronos glTF Blender I/O v4.4.56",
		"version":"2.0"
	},
	"scene":0,
	"scenes":[
		{
			"name":"Scene",
			"nodes":[
				0,
				1
			]
		}
	],
	"nodes":[
		{
			"mesh":0,
			"name":"Sphere",
			"rotation":[
				0.7071068286895752,
				0,
				0,
				0.7071068286895752
			]
		},
		{
			"mesh":1,
			"name":"Sphere.001",
			"rotation":[
				0.7071068286895752,
				0,
				0,
				0.7071068286895752
			]
		}
	],
	"animations":[
		{
			"channels":[
				{
					"sampler":0,
					"target":{
						"node":0,
						"path":"translation"
					}
				},
				{
					"sampler":1,
					"target":{
						"node":0,
						"path":"rotation"
					}
				},
				{
					"sampler":2,
					"target":{
						"node":0,
						"path":"scale"
					}
				}
			],
			"name":"SphereAction",
			"samplers":[
				{
					"input":8,
					"interpolation":"LINEAR",
					"output":9
				},
				{
					"input":8,
					"interpolation":"LINEAR",
					"output":10
				},
				{
					"input":8,
					"interpolation":"LINEAR",
					"output":11
				}
			]
		},
		{
			"channels":[
				{
					"sampler":0,
					"target":{
						"node":1,
						"path":"translation"
					}
				},
				{
					"sampler":1,
					"target":{
						"node":1,
						"path":"rotation"
					}
				},
				{
					"sampler":2,
					"target":{
						"node":1,
						"path":"scale"
					}
				}
			],
			"name":"Sphere.001Action",
			"samplers":[
				{
					"input":12,
					"interpolation":"LINEAR",
					"output":13
				},
				{
					"input":12,
					"interpolation":"LINEAR",
					"output":14
				},
				{
					"input":15,
					"interpolation":"STEP",
					"output":16
				}
			]
		}
	],
	"materials":[
		{
			"doubleSided":true,
			"name":"Yellow",
			"pbrMetallicRoughness":{
				"baseColorFactor":[
					0.8431277275085449,
					0.6063777208328247,
					0.015028598718345165,
					1
				],
				"metallicFactor":0,
				"roughnessFactor":0.5
			}
		},
		{
			"doubleSided":true,
			"name":"Pink",
			"pbrMetallicRoughness":{
				"baseColorFactor":[
					0.8000074625015259,
					0.11406274139881134,
					0.6045909523963928,
					1
				],
				"metallicFactor":0,
				"roughnessFactor":0.5
			}
		}
	],
	"meshes":[
		{
			"name":"Sphere",
			"primitives":[
				{
					"attributes":{
						"POSITION":0,
						"NORMAL":1,
						"TEXCOORD_0":2
					},
					"indices":3,
					"material":0
				}
			]
		},
		{
			"name":"Sphere.001",
			"primitives":[
				{
					"attributes":{
						"POSITION":4,
						"NORMAL":5,
						"TEXCOORD_0":6
					},
					"indices":7,
					"material":1
				}
			]
		}
	],
	"accessors":[
		{
			"bufferView":0,
			"componentType":5126,
			"count":1424,
			"max":[
				0.5555702447891235,
				1,
				0.9999993443489075
			],
			"min":[
				-0.9999990463256836,
				-1,
				-1
			],
			"type":"VEC3"
		},
		{
			"bufferView":1,
			"componentType":5126,
			"count":1424,
			"type":"VEC3"
		},
		{
			"bufferView":2,
			"componentType":5126,
			"count":1424,
			"type":"VEC2"
		},
		{
			"bufferView":3,
			"componentType":5123,
			"count":2040,
			"type":"SCALAR"
		},
		{
			"bufferView":4,
			"componentType":5126,
			"count":560,
			"max":[
				0.9999997019767761,
				0.9807852506637573,
				0.8314693570137024
			],
			"min":[
				0.1083863154053688,
				-0.9807852506637573,
				-0.8314694762229919
			],
			"type":"VEC3"
		},
		{
			"bufferView":5,
			"componentType":5126,
			"count":560,
			"type":"VEC3"
		},
		{
			"bufferView":6,
			"componentType":5126,
			"count":560,
			"type":"VEC2"
		},
		{
			"bufferView":7,
			"componentType":5123,
			"count":840,
			"type":"SCALAR"
		},
		{
			"bufferView":8,
			"componentType":5126,
			"count":1,
			"max":[
				0.041666666666666664
			],
			"min":[
				0.041666666666666664
			],
			"type":"SCALAR"
		},
		{
			"bufferView":9,
			"componentType":5126,
			"count":1,
			"type":"VEC3"
		},
		{
			"bufferView":10,
			"componentType":5126,
			"count":1,
			"type":"VEC4"
		},
		{
			"bufferView":11,
			"componentType":5126,
			"count":1,
			"type":"VEC3"
		},
		{
			"bufferView":12,
			"componentType":5126,
			"count":24,
			"max":[
				1
			],
			"min":[
				0.041666666666666664
			],
			"type":"SCALAR"
		},
		{
			"bufferView":13,
			"componentType":5126,
			"count":24,
			"type":"VEC3"
		},
		{
			"bufferView":14,
			"componentType":5126,
			"count":24,
			"type":"VEC4"
		},
		{
			"bufferView":15,
			"componentType":5126,
			"count":2,
			"max":[
				1
			],
			"min":[
				0.041666666666666664
			],
			"type":"SCALAR"
		},
		{
			"bufferView":16,
			"componentType":5126,
			"count":2,
			"type":"VEC3"
		}
	],
	"bufferViews":[
		{
			"buffer":0,
			"byteLength":17088,
			"byteOffset":0,
			"target":34962
		},
		{
			"buffer":0,
			"byteLength":17088,
			"byteOffset":17088,
			"target":34962
		},
		{
			"buffer":0,
			"byteLength":11392,
			"byteOffset":34176,
			"target":34962
		},
		{
			"buffer":0,
			"byteLength":4080,
			"byteOffset":45568,
			"target":34963
		},
		{
			"buffer":0,
			"byteLength":6720,
			"byteOffset":49648,
			"target":34962
		},
		{
			"buffer":0,
			"byteLength":6720,
			"byteOffset":56368,
			"target":34962
		},
		{
			"buffer":0,
			"byteLength":4480,
			"byteOffset":63088,
			"target":34962
		},
		{
			"buffer":0,
			"byteLength":1680,
			"byteOffset":67568,
			"target":34963
		},
		{
			"buffer":0,
			"byteLength":4,
			"byteOffset":69248
		},
		{
			"buffer":0,
			"byteLength":12,
			"byteOffset":69252
		},
		{
			"buffer":0,
			"byteLength":16,
			"byteOffset":69264
		},
		{
			"buffer":0,
			"byteLength":12,
			"byteOffset":69280
		},
		{
			"buffer":0,
			"byteLength":96,
			"byteOffset":69292
		},
		{
			"buffer":0,
			"byteLength":288,
			"byteOffset":69388
		},
		{
			"buffer":0,
			"byteLength":384,
			"byteOffset":69676
		},
		{
			"buffer":0,
			"byteLength":8,
			"byteOffset":70060
		},
		{
			"buffer":0,
			"byteLength":24,
			"byteOffset":70068
		}
	],
	"buffers":[
		{
			"byteLength":70092,
			"uri":"chomp_03.bin"
		}
	]
}
